<svg width="52" height="52" viewBox="0 0 52 52" fill="none" xmlns="http://www.w3.org/2000/svg">
<path d="M49.1393 16.4156L49.0128 16.1073L48.7779 16.3435L44.0983 21.0479L44.009 21.1376L44.0411 21.26C44.4323 22.7514 44.6281 24.2924 44.6281 25.8834C44.6281 36.2098 36.2346 44.6034 25.9082 44.6034C15.5568 44.6034 7.1635 36.2097 7.1635 25.8834C7.1635 24.2672 7.3594 22.7015 7.75049 21.2105L7.7826 21.0881L7.69336 20.9984L3.01379 16.294L2.77804 16.057L2.65209 16.3667C1.45339 19.3135 0.778814 22.5109 0.778814 25.8834C0.778814 39.7224 12.0444 50.9881 25.8834 50.9881C39.7224 50.9881 50.9881 39.7224 50.9881 25.8834C50.9881 22.5368 50.3387 19.3391 49.1393 16.4156ZM41.4469 15.4838L41.5967 15.7073L41.787 15.517L46.0456 11.2583L46.1805 11.1235L46.067 10.9703C41.4962 4.80102 34.1522 0.778814 25.8834 0.778814C17.6397 0.778814 10.2956 4.77597 5.72469 10.9455L5.61116 11.0987L5.74601 11.2336L10.0047 15.4922L10.1949 15.6825L10.3448 15.459C13.1835 11.2253 17.7106 8.2157 22.9465 7.38368C23.9004 7.23696 24.8793 7.1635 25.8834 7.1635C26.8876 7.1635 27.8666 7.23696 28.8205 7.38369C34.0805 8.21564 38.6078 11.2497 41.4469 15.4838Z" fill="#75BF7A" stroke="#75BF7A" stroke-width="0.442372"/>
</svg>
